HIERARCHY
ROOT Model_Hips
{
	OFFSET 0.000000 96.915077 0.000000
	CHANNELS 6 Xposition Yposition Zposition Xrotation Yrotation Zrotation
	JOINT Model_Spine
	{
		OFFSET 0.000000 11.137703 -1.289900
		CHANNELS 3 Xrotation Yrotation Zrotation
		JOINT Model_Spine1
		{
			OFFSET 0.000000 12.993942 -1.504922
			CHANNELS 3 Xrotation Yrotation Zrotation
			JOINT Model_Spine2
			{
				OFFSET 0.000000 14.850220 -1.719911
				CHANNELS 3 Xrotation Yrotation Zrotation
				JOINT Model_Neck
				{
					OFFSET 0.000000 16.706543 -1.934903
					CHANNELS 3 Xrotation Yrotation Zrotation
					JOINT Model_Head
					{
						OFFSET 0.000000 10.471298 2.002100
						CHANNELS 3 Xrotation Yrotation Zrotation
						JOINT Model_HeadTop_End
						{
							OFFSET 0.000000 20.842606 3.985100
							CHANNELS 3 Xrotation Yrotation Zrotation
							End Site
							{
								OFFSET 0.000000 21.220154 0.000000
							}
						}
					}
				}
				JOINT Model_LeftShoulder
				{
					OFFSET 7.008500 14.768600 -1.919946
					CHANNELS 3 Xrotation Yrotation Zrotation
					JOINT Model_LeftArm
					{
						OFFSET 14.126271 -3.718048 0.029937
						CHANNELS 3 Xrotation Yrotation Zrotation
						JOINT Model_LeftForeArm
						{
							OFFSET 28.282801 0.000000 0.000000
							CHANNELS 3 Xrotation Yrotation Zrotation
							JOINT Model_LeftHand
							{
								OFFSET 26.204689 0.000000 0.000000
								CHANNELS 3 Xrotation Yrotation Zrotation
								End Site
								{
									OFFSET 26.204704 0.000000 0.000000
								}
							}
						}
					}
				}
				JOINT Model_RightShoulder
				{
					OFFSET -7.008500 14.768555 -1.949840
					CHANNELS 3 Xrotation Yrotation Zrotation
					JOINT Model_RightArm
					{
						OFFSET -14.126281 -3.718018 -0.029932
						CHANNELS 3 Xrotation Yrotation Zrotation
						JOINT Model_RightForeArm
						{
							OFFSET -28.283798 0.000000 -0.000001
							CHANNELS 3 Xrotation Yrotation Zrotation
							JOINT Model_RightHand
							{
								OFFSET -26.204193 0.000000 -0.000001
								CHANNELS 3 Xrotation Yrotation Zrotation
								End Site
								{
									OFFSET -26.204208 0.000000 -0.000001
								}
							}
						}
					}
				}
			}
		}
	}
	JOINT Model_LeftUpLeg
	{
		OFFSET 8.327700 -6.193199 -0.402800
		CHANNELS 3 Xrotation Yrotation Zrotation
		JOINT Model_LeftLeg
		{
			OFFSET 0.735802 -42.108742 -0.610721
			CHANNELS 3 Xrotation Yrotation Zrotation
			JOINT Model_LeftFoot
			{
				OFFSET -0.735806 -36.833748 -0.172876
				CHANNELS 3 Xrotation Yrotation Zrotation
				JOINT Model_LeftToeBase
				{
					OFFSET -0.565857 -11.977769 16.297714
					CHANNELS 3 Xrotation Yrotation Zrotation
					JOINT Model_LeftToe_End
					{
						OFFSET -0.111712 -0.312793 7.857784
						CHANNELS 3 Xrotation Yrotation Zrotation
						End Site
						{
							OFFSET -0.111712 -0.312793 7.857784
						}
					}
				}
			}
		}
	}
	JOINT Model_RightUpLeg
	{
		OFFSET -8.327700 -6.193199 -0.516500
		CHANNELS 3 Xrotation Yrotation Zrotation
		JOINT Model_RightLeg
		{
			OFFSET -0.735785 -42.108738 -0.434061
			CHANNELS 3 Xrotation Yrotation Zrotation
			JOINT Model_RightFoot
			{
				OFFSET 0.735776 -36.833748 -0.021630
				CHANNELS 3 Xrotation Yrotation Zrotation
				JOINT Model_RightToeBase
				{
					OFFSET 0.565817 -11.977745 15.903093
					CHANNELS 3 Xrotation Yrotation Zrotation
					JOINT Model_RightToe_End
					{
						OFFSET 0.111702 -0.312791 7.811342
						CHANNELS 3 Xrotation Yrotation Zrotation
						End Site
						{
							OFFSET 0.111702 -0.312791 7.811342
						}
					}
				}
			}
		}
	}
}
MOTION
Frames: 11
Frame Time: 0.016667
14.205386 95.908424 78.955185 -4.091034 24.122790 -1.061362 5.595519 -1.473786 0.172672 0.392559 -0.404022 0.179193 0.393004 -0.406394 0.180696 -1.679175 0.678499 0.686958 -1.679017 0.682774 0.682789 -0.000000 0.000000 0.000000 0.677299 -2.357476 -18.841114 -4.525809 -16.000734 -57.437410 -0.000005 -15.740825 0.000008 -0.000000 0.000001 -0.000000 1.055364 -2.487265 18.407549 7.329688 -4.550148 63.842939 0.000021 10.083085 -0.000009 0.000000 0.000000 0.000000 -2.863573 4.440936 -6.269612 22.502282 -7.945492 1.344636 -11.823969 -2.011849 10.371535 -4.051818 -0.000006 -0.000001 0.000000 -0.000001 -0.000000 -21.034867 -4.785349 -4.048308 44.376227 -3.435680 -2.226910 -3.011914 -0.403050 6.062599 -8.110516 -0.172673 1.954894 0.000000 -0.000000 0.000000 
14.683989 95.806709 80.815094 -3.939864 24.909843 -0.938422 5.574199 -1.694037 0.122657 0.395390 -0.461636 0.169956 0.395976 -0.463780 0.171629 -1.706224 0.695788 0.669237 -1.706050 0.699666 0.665269 0.000000 0.000002 -0.000000 0.652142 -2.669044 -18.851373 -5.755961 -17.552461 -56.555302 0.000007 -17.514215 0.000011 0.000000 0.000001 0.000002 1.051894 -2.570553 18.221621 8.621051 -5.702026 64.657979 -0.000005 9.463596 -0.000004 0.000001 -0.000000 -0.000001 -1.604337 4.758336 -6.050246 22.584118 -9.221842 1.340571 -13.038864 -2.108863 10.558237 -4.304010 -0.000005 0.000001 0.000000 0.000001 0.000000 -22.185370 -4.694549 -4.438330 39.419395 -4.701871 -2.489494 -2.747372 -0.428534 6.566585 -2.542333 -0.000006 0.000001 -0.000000 0.000000 0.000000 
15.164300 95.627335 82.667923 -3.784028 25.636058 -0.762735 5.570925 -1.877504 0.024191 0.398071 -0.507485 0.152032 0.398870 -0.509352 0.153833 -1.742472 0.714669 0.639149 -1.742379 0.717978 0.635320 0.000000 0.000000 0.000000 0.622259 -3.038435 -18.885470 -6.940364 -18.889628 -55.647061 0.000006 -19.315968 0.000025 -0.000001 -0.000000 0.000001 1.045974 -2.637100 18.020964 9.850494 -6.691664 65.419367 0.000024 8.786908 -0.000005 -0.000003 -0.000000 -0.000001 -0.397535 5.039630 -5.869748 22.778693 -9.902623 1.320089 -14.401346 -2.701594 10.698328 -5.094301 -0.000004 0.000001 0.000000 -0.000002 -0.000000 -22.871688 -4.691800 -4.905600 33.511271 -6.067152 -2.781848 -2.082709 -0.419455 7.064762 -1.993434 -0.000000 -0.000001 -0.000000 -0.000000 0.000000 
15.651952 95.386635 84.520416 -3.548612 26.351906 -0.559265 5.509440 -2.062603 -0.114753 0.391979 -0.553136 0.123356 0.393119 -0.554512 0.125181 -1.786905 0.733018 0.604618 -1.786907 0.735702 0.600967 0.000000 -0.000002 -0.000000 0.592484 -3.403132 -18.898761 -8.101421 -20.098725 -54.766315 0.000002 -21.073188 0.000000 0.000001 0.000002 -0.000001 1.041324 -2.700416 17.851096 10.972399 -7.567097 66.100488 -0.000012 8.052667 0.000002 -0.000001 -0.000000 0.000000 0.735413 5.259908 -5.742546 22.958294 -9.925402 1.302841 -15.829436 -3.831856 10.668442 -5.621597 0.000003 -0.000002 0.000000 -0.000001 -0.000000 -23.026818 -4.734676 -5.396377 26.436519 -7.313723 -3.114111 -0.891666 -0.347828 7.335613 -1.890653 -0.000003 -0.000003 0.000000 -0.000001 0.000000 
16.160845 95.094078 86.378510 -3.190030 27.058418 -0.332313 5.343618 -2.232073 -0.302217 0.372045 -0.594870 0.079478 0.373701 -0.595528 0.081150 -1.840229 0.746811 0.575537 -1.840324 0.748921 0.572156 -0.000000 -0.000001 -0.000000 0.567056 -3.715041 -18.883207 -9.283106 -21.271951 -53.947522 -0.000005 -22.645420 0.000010 -0.000001 -0.000001 -0.000003 1.042875 -2.791027 17.756342 11.957431 -8.369434 66.657305 0.000018 7.309304 0.000008 0.000001 -0.000001 0.000000 1.796265 5.378129 -5.690184 23.041271 -9.947575 1.246579 -17.234709 -4.831808 10.630273 -5.484235 0.000007 -0.000003 0.000000 -0.000002 -0.000000 -22.409484 -4.811673 -5.870029 17.694522 -7.691345 -3.508767 1.065735 -0.829661 7.398158 -2.240973 0.000012 0.000002 -0.000000 0.000000 0.000000 
16.701052 94.766586 88.247932 -2.729266 27.712261 -0.065109 5.087886 -2.347022 -0.547282 0.341974 -0.620516 0.022376 0.344271 -0.620289 0.023724 -1.902375 0.753520 0.554631 -1.902550 0.754479 0.551424 -0.000000 0.000002 0.000000 0.548030 -3.948357 -18.874488 -10.517036 -22.445897 -53.204257 -0.000010 -23.908029 -0.000001 0.000000 0.000004 -0.000002 1.051137 -2.916497 17.733338 12.812013 -9.095777 67.060744 0.000001 6.624021 0.000005 -0.000000 0.000000 0.000000 2.831322 5.384061 -5.754690 22.982120 -9.968860 1.181346 -18.531128 -5.649017 10.556887 -5.429463 -0.000009 0.000001 0.000000 -0.000000 -0.000000 -22.618964 -4.929181 -6.510398 10.863165 -7.696025 -3.709737 6.905831 -1.298798 6.921357 -2.612637 -0.000003 0.000001 -0.000001 -0.000001 0.000000 
17.291262 94.096519 90.268623 -2.250671 28.270027 0.203008 4.544784 -2.390789 -0.890516 0.439750 -0.620991 0.012765 0.443281 -0.618381 0.011548 -1.963433 0.756925 0.537301 -1.963702 0.758052 0.534490 -0.000000 0.000001 0.000000 0.535467 -4.099531 -18.905124 -11.816783 -23.573858 -52.560078 -0.000004 -24.798636 0.000006 -0.000000 -0.000001 0.000000 1.060635 -3.036709 17.737499 13.575407 -9.726621 67.318522 0.000019 6.049916 0.000017 -0.000001 -0.000000 -0.000000 3.099059 5.412085 -5.771976 24.865343 -9.993412 1.136025 -20.919242 -6.352210 10.608495 -5.601351 -0.000002 0.000003 0.000000 -0.000000 -0.000000 -23.284088 -5.079953 -7.223924 5.362666 -7.530193 -3.764368 3.976135 -1.740583 7.625452 -2.761215 -0.000000 -0.000005 0.000003 -0.000001 0.000000 
17.922937 93.474831 92.335373 -1.862256 28.747013 0.455256 4.013275 -2.395472 -1.165724 0.562608 -0.614231 0.020663 0.567166 -0.611178 0.017273 -2.007342 0.763562 0.519496 -2.007715 0.764287 0.516807 -0.000000 0.000001 -0.000000 0.527475 -4.190512 -18.972894 -13.173753 -24.553801 -52.070750 -0.000012 -25.316378 -0.000006 -0.000002 0.000001 -0.000004 1.064290 -3.087674 17.728828 14.296639 -10.271375 67.460959 0.000017 5.611540 -0.000022 -0.000003 0.000000 0.000000 3.812054 5.446737 -5.748275 26.033309 -9.920114 1.104958 -22.874877 -7.096066 10.443942 -5.871583 0.000002 0.000000 0.000000 -0.000000 -0.000000 -24.551065 -5.348794 -8.097866 1.698776 -7.248451 -3.367567 1.081973 -1.516151 8.386809 -2.943296 0.000006 -0.000002 -0.000001 -0.000000 0.000001 
18.563478 93.062706 94.376167 -1.626620 29.196125 0.654719 3.735907 -2.424247 -1.256070 0.614089 -0.620979 0.027638 0.619060 -0.617487 0.023085 -2.025083 0.777411 0.506327 -2.025544 0.777901 0.503647 -0.000000 -0.000002 0.000000 0.521652 -4.254425 -19.037153 -14.552589 -25.291764 -51.809720 -0.000004 -25.503429 0.000013 -0.000000 -0.000004 0.000001 1.059086 -3.038625 17.696081 14.996213 -10.779464 67.518005 0.000004 5.298578 -0.000014 0.000000 0.000001 0.000000 5.220346 5.524231 -5.609889 25.852608 -9.821963 1.093054 -23.933078 -7.864377 10.001773 -6.387554 0.000001 0.000005 0.000000 0.000001 -0.000000 -27.029960 -5.897428 -9.301522 1.806948 -6.756616 -1.969161 -1.575257 -0.491214 9.309369 -3.507067 -0.000005 0.000002 0.000002 0.000001 0.000001 
19.192724 92.747475 96.420021 -1.522038 29.653318 0.769415 3.657251 -2.508474 -1.200161 0.617437 -0.647081 0.045042 0.622447 -0.643922 0.040157 -2.026709 0.797694 0.508330 -2.027173 0.798094 0.505649 -0.000000 0.000001 -0.000000 0.516292 -4.317138 -19.050596 -15.889740 -25.753746 -51.815564 0.000003 -25.444977 0.000006 -0.000001 -0.000001 -0.000001 1.048830 -2.931365 17.650088 15.639745 -11.280432 67.493477 -0.000002 5.077175 0.000012 0.000002 0.000001 0.000000 6.884179 5.630748 -5.319896 25.254742 -9.705356 1.158723 -24.555749 -8.589479 9.391376 -7.258842 0.000000 -0.000004 0.000000 0.000000 -0.000000 -28.911696 -6.331387 -10.274721 2.009312 -3.866055 -0.579326 -3.812613 -0.816168 10.102552 -4.406454 0.000002 0.000006 -0.000001 -0.000001 -0.000000 
19.800264 92.452339 98.494308 -1.478697 30.109899 0.810395 3.670496 -2.633538 -1.098131 0.621101 -0.685098 0.073695 0.615547 -0.682534 0.068638 -2.034247 0.820616 0.532393 -2.034642 0.821101 0.529743 -0.000000 0.000001 0.000000 0.509991 -4.399592 -18.986114 -17.106957 -25.935845 -52.049108 0.000001 -25.255780 0.000004 -0.000000 -0.000001 0.000000 1.041039 -2.843697 17.620877 16.157852 -11.721949 67.355316 -0.000009 4.917797 0.000019 0.000000 -0.000001 0.000000 8.554717 5.658241 -4.993374 24.723992 -9.565973 1.402108 -25.071061 -9.108152 8.823611 -8.459778 0.000003 0.000006 0.000000 0.000001 -0.000000 -30.044021 -6.236297 -10.634615 2.205524 -0.770645 -0.040167 -5.143591 -0.957355 10.396146 -5.191692 0.000014 -0.000002 0.000001 0.000001 -0.000000 
